<svg width="97" height="97" viewBox="0 0 97 97" fill="none" xmlns="http://www.w3.org/2000/svg">
<path d="M77.162 26.1848C77.162 22.6781 74.3201 19.838 70.8152 19.838C67.3101 19.838 64.4683 22.6781 64.4683 26.1848V45.2253C64.4683 46.9072 65.1365 48.5226 66.3279 49.7125C67.5181 50.9027 69.1318 51.5721 70.8152 51.5721C72.4989 51.5721 74.1126 50.9027 75.3024 49.7125C76.494 48.5226 77.162 46.9072 77.162 45.2253V35.7051H73.9887" stroke="#003A37" stroke-width="1.25" stroke-miterlimit="10" stroke-linecap="round" stroke-linejoin="round"/>
<path d="M29.5606 19.838H20.0405V51.5721H29.5606" stroke="#003A37" stroke-width="1.25" stroke-miterlimit="10" stroke-linecap="round" stroke-linejoin="round"/>
<path d="M26.3873 35.7053H20.0405" stroke="#003A37" stroke-width="1.25" stroke-miterlimit="10" stroke-linecap="round" stroke-linejoin="round"/>
<path d="M39.0806 51.5721V19.838L53.3609 51.5721V19.838" stroke="#003A37" stroke-width="1.25" stroke-miterlimit="10" stroke-linecap="round" stroke-linejoin="round"/>
<path d="M96.2025 0.797485H1V70.6127H20.0405V96L32.7342 70.6127H96.2025V0.797485Z" stroke="#003A37" stroke-width="1.25" stroke-miterlimit="10" stroke-linecap="round" stroke-linejoin="round"/>
</svg>
