<svg xmlns="http://www.w3.org/2000/svg" width="10" height="9" viewBox="0 0 10 9" fill="none">
  <path d="M4.64371 0.698144C4.79217 0.407244 5.20783 0.407243 5.35629 0.698144L6.40635 2.75576C6.46448 2.86965 6.57354 2.94889 6.69981 2.96897L8.98121 3.3318C9.30375 3.3831 9.43219 3.77842 9.20141 4.0095L7.56899 5.64401C7.47864 5.73448 7.43698 5.8627 7.4569 5.989L7.81681 8.27085C7.86769 8.59346 7.53142 8.83778 7.24033 8.68969L5.18137 7.64227C5.06741 7.58429 4.93259 7.58429 4.81863 7.64227L2.75967 8.68969C2.46858 8.83778 2.13231 8.59346 2.18319 8.27085L2.5431 5.989C2.56302 5.8627 2.52136 5.73448 2.43101 5.64401L0.798594 4.0095C0.567806 3.77842 0.696252 3.3831 1.01879 3.33181L3.30019 2.96897C3.42646 2.94889 3.53552 2.86965 3.59365 2.75576L4.64371 0.698144Z" fill="#003A37"/>
</svg>