<svg xmlns="http://www.w3.org/2000/svg" width="182" height="40" viewBox="0 0 182 40" fill="none">
  <path d="M19.8908 39.7746C30.8761 39.7746 39.7815 30.8707 39.7815 19.8873C39.7815 8.90384 30.8761 0 19.8908 0C8.90539 0 0 8.90384 0 19.8873C0 30.8707 8.90539 39.7746 19.8908 39.7746Z" fill="#003A37"/>
  <path fill-rule="evenodd" clip-rule="evenodd" d="M24.3217 22.1688V19.4126L15.3164 17.592V20.3652L24.3217 22.1688Z" fill="#AEFF65"/>
  <path fill-rule="evenodd" clip-rule="evenodd" d="M27.8951 24.9108V22.8839L24.3213 22.1687V24.9108H27.8951Z" fill="#AEFF65"/>
  <path fill-rule="evenodd" clip-rule="evenodd" d="M11.8691 16.8936L15.3157 17.5918V14.8667H11.8691V16.8936Z" fill="#AEFF65"/>
  <path fill-rule="evenodd" clip-rule="evenodd" d="M27.9153 16.1276V14.1431H24.0446V10.9741H15.3164V14.1685V14.8668H23.2982V16.1276H27.9153Z" fill="#AEFF65"/>
  <path fill-rule="evenodd" clip-rule="evenodd" d="M16.3738 23.811H11.9688V25.7955H15.2259V28.8005H23.6318H24.3217V25.6089V24.9107H16.3738V23.811Z" fill="#AEFF65"/>
  <path d="M56.7627 23.6046C56.8645 26.1884 59.1095 26.9969 61.4873 26.9969C63.2884 26.9969 65.7284 26.5898 65.7284 24.382C65.7284 22.1742 62.8784 21.7671 59.9916 21.1254C57.1049 20.4837 54.2492 19.531 54.2492 16.167C54.2492 12.6334 57.7495 11.1719 60.8059 11.1719C64.6795 11.1719 67.7726 12.3959 68.0101 16.6759H65.1234C64.917 14.4341 62.9463 13.7217 61.0463 13.7217C59.3131 13.7217 57.3084 14.1967 57.3084 15.9635C57.3084 18.0356 60.3649 18.3748 63.0481 19.0194C65.9377 19.6667 68.7905 20.6166 68.7905 24.0286C68.7905 28.2068 64.883 29.5637 61.3177 29.5637C57.3763 29.5637 54.0456 27.9693 53.876 23.6272L56.7627 23.6046Z" fill="#003A37"/>
  <path d="M73.2976 9.3909H70.4023V6.41699H73.2919L73.2976 9.3909ZM70.4023 11.5902H73.2919V29.151H70.4023V11.5902Z" fill="#003A37"/>
  <path d="M91.3445 29.1425H88.4577V26.7651H88.3899C87.4399 28.7015 85.1949 29.5496 82.7831 29.5496C77.3828 29.5496 74.6968 25.2696 74.6968 20.3112C74.6968 15.3528 77.3489 11.1718 82.7153 11.1718C84.5163 11.1718 87.0977 11.8531 88.3899 13.9253H88.4577V6.41699H91.3445V29.1425ZM83.1903 27.0025C87.0638 27.0025 88.5623 23.6752 88.5623 20.3791C88.5623 16.9133 86.9988 13.7217 83.0235 13.7217C79.0481 13.7217 77.7532 17.0829 77.7532 20.5148C77.7532 23.8109 79.4496 27.0025 83.1903 27.0025Z" fill="#003A37"/>
  <path d="M96.2781 25.951H93.0859V14.844H96.2781V18.0017H105.928V14.844H109.12V21.2018H96.2781V25.951ZM105.928 14.844H96.2781V11.6157H105.928V14.844ZM96.2781 25.951H105.928V29.1425H96.2781V25.951ZM105.928 22.7566H109.12V25.951H105.928V22.7566Z" fill="#003A37"/>
  <path d="M124.445 17.2186C124.004 15.0108 122.466 13.7217 120.097 13.7217C115.918 13.7217 114.626 17.0151 114.626 20.5826C114.626 23.811 116.088 27.0025 119.757 27.0025C122.542 27.0025 124.208 25.3714 124.581 22.7226H127.538C126.891 27.0025 124.208 29.5496 119.791 29.5496C114.419 29.5496 111.569 25.8152 111.569 20.5826C111.569 15.35 114.286 11.1719 119.859 11.1719C123.835 11.1719 127.027 13.0405 127.437 17.2186H124.445Z" fill="#003A37"/>
  <path d="M128.98 6.41699H131.867V14.1627H131.935C132.887 12.0567 135.367 11.1718 137.473 11.1718C142.093 11.1718 143.521 13.8235 143.521 17.5946V29.1425H140.632V17.244C140.632 15.1041 139.275 13.7132 137.066 13.7132C133.566 13.7132 131.867 16.0567 131.867 19.2144V29.134H128.98V6.41699Z" fill="#003A37"/>
  <path d="M161.337 29.0747C160.704 29.4222 159.986 29.5866 159.265 29.5496C157.769 29.5496 156.819 28.7354 156.819 26.8329C155.222 28.7015 153.081 29.5496 150.636 29.5496C147.441 29.5496 144.825 28.1361 144.825 24.6251C144.825 20.6505 147.783 19.8024 150.763 19.2229C153.958 18.6123 156.675 18.8158 156.675 16.6419C156.675 14.1288 154.602 13.7217 152.767 13.7217C150.322 13.7217 148.526 14.468 148.385 17.049H145.504C145.673 12.7012 149.038 11.1719 152.945 11.1719C156.104 11.1719 159.536 11.8871 159.536 15.9974V25.0435C159.536 26.4032 159.536 27.0223 160.455 27.0223C160.757 27.02 161.056 26.9625 161.337 26.8527V29.0747ZM156.638 20.071C155.507 20.8851 153.341 20.919 151.405 21.2583C149.468 21.5975 147.873 22.2816 147.873 24.4216C147.873 26.3241 149.502 27.0025 151.266 27.0025C155.072 27.0025 156.638 24.6251 156.638 23.0279V20.071Z" fill="#003A37"/>
  <path d="M165.333 9.3909H162.446V6.41699H165.333V9.3909ZM162.446 11.5902H165.333V29.151H162.446V11.5902Z" fill="#003A37"/>
  <path d="M178.807 14.8073H173.885V18.0017H170.687V29.1425H167.492V11.6157H170.687V14.8073H173.885V11.6157H178.813L178.807 14.8073ZM178.807 14.8073H182V29.1425H178.807V14.8073Z" fill="#003A37"/>
</svg>