<?xml version="1.0" standalone="no"?>
<!DOCTYPE svg PUBLIC "-//W3C//DTD SVG 20010904//EN"
 "http://www.w3.org/TR/2001/REC-SVG-20010904/DTD/svg10.dtd">
<svg version="1.0" xmlns="http://www.w3.org/2000/svg"
 width="874.000000pt" height="166.000000pt" viewBox="0 0 874.000000 166.000000"
 preserveAspectRatio="xMidYMid meet">

<g transform="translate(0.000000,166.000000) scale(0.100000,-0.100000)"
fill="#fff" stroke="none">
<path d="M2510 1276 c-75 -16 -122 -41 -181 -93 -106 -96 -129 -176 -129 -459
0 -211 9 -284 48 -362 48 -98 168 -185 273 -197 24 -3 158 -2 296 2 l253 8
-51 90 -52 89 17 45 c26 71 39 230 33 401 -8 216 -37 301 -131 388 -55 51 -89
68 -168 87 -74 17 -133 18 -208 1z m205 -217 c19 -13 42 -40 52 -59 40 -83 39
-480 -1 -557 -44 -86 -165 -119 -256 -71 -33 18 -51 37 -70 73 -24 47 -25 60
-29 238 -3 203 7 292 40 338 55 77 180 95 264 38z"/>
<path d="M4800 1280 c-118 -25 -237 -126 -281 -237 -20 -52 -23 -79 -27 -271
-2 -135 0 -237 8 -280 24 -140 94 -238 209 -295 64 -31 70 -32 191 -32 115 0
130 2 182 27 122 57 198 172 219 333 13 104 7 393 -11 471 -25 113 -121 221
-236 263 -65 25 -187 35 -254 21z m177 -202 c46 -14 89 -67 102 -128 14 -66
14 -369 0 -445 -6 -33 -20 -73 -31 -88 -43 -60 -149 -84 -226 -52 -98 42 -115
93 -115 355 0 219 8 264 56 317 51 55 123 69 214 41z"/>
<path d="M313 1261 c-103 -30 -175 -90 -217 -181 -30 -66 -29 -196 2 -265 30
-65 83 -119 143 -145 27 -11 107 -29 179 -40 72 -11 139 -24 150 -30 40 -21
60 -60 60 -117 0 -49 -4 -59 -33 -88 -18 -18 -51 -38 -72 -44 -94 -26 -251 0
-321 54 l-36 28 -69 -69 -68 -68 32 -28 c82 -71 204 -108 357 -109 182 0 300
49 373 153 86 123 70 315 -35 415 -48 47 -109 70 -233 88 -60 9 -127 21 -149
27 -45 14 -95 60 -98 91 -5 75 18 118 78 147 40 20 57 22 135 18 79 -5 96 -9
141 -37 l51 -32 66 65 66 66 -30 24 c-44 36 -122 72 -183 85 -78 16 -217 12
-289 -8z"/>
<path d="M1170 725 l0 -555 365 0 365 0 0 90 0 90 -257 2 -258 3 -3 138 -3
137 226 0 225 0 0 95 0 95 -222 2 -223 3 -3 133 -3 132 261 0 260 0 0 95 0 95
-365 0 -365 0 0 -555z"/>
<path d="M3352 868 c3 -410 3 -413 27 -473 33 -83 124 -173 206 -205 88 -34
240 -40 315 -11 129 48 203 123 240 240 19 59 20 91 20 462 l0 399 -105 0
-105 0 0 -390 c0 -412 -2 -432 -48 -483 -47 -53 -155 -73 -225 -43 -38 16 -81
60 -99 101 -9 22 -13 133 -16 423 l-3 392 -105 0 -105 0 3 -412z"/>
<path d="M5630 725 l0 -555 105 0 105 0 0 555 0 555 -105 0 -105 0 0 -555z"/>
<path d="M6525 1268 c-3 -7 -91 -249 -196 -538 -105 -289 -194 -533 -196 -543
-5 -15 5 -17 104 -17 l110 0 32 95 33 95 202 0 202 0 30 -92 30 -93 111 -3
110 -3 -192 528 c-106 290 -198 540 -204 556 -10 26 -12 27 -91 27 -55 0 -82
-4 -85 -12z m160 -512 c36 -103 65 -194 65 -202 0 -11 -24 -14 -133 -14 -74 0
-136 3 -140 6 -3 3 23 90 59 193 80 231 74 215 80 209 3 -3 34 -90 69 -192z"/>
</g>
</svg>
