<?xml version="1.0" standalone="no"?>
<!DOCTYPE svg PUBLIC "-//W3C//DTD SVG 20010904//EN"
 "http://www.w3.org/TR/2001/REC-SVG-20010904/DTD/svg10.dtd">
<svg version="1.0" xmlns="http://www.w3.org/2000/svg"
 width="954.000000pt" height="117.000000pt" viewBox="0 0 954.000000 117.000000"
 preserveAspectRatio="xMidYMid meet">

<g transform="translate(0.000000,117.000000) scale(0.100000,-0.100000)"
fill="#fff" stroke="none">
<path d="M70 555 l0 -495 500 0 500 0 0 495 0 495 -500 0 -500 0 0 -495z m350
100 l0 -215 -45 0 -45 0 0 215 0 215 45 0 45 0 0 -215z m190 -100 l0 -315 -40
0 -40 0 0 315 0 315 40 0 40 0 0 -315z m200 100 l0 -215 -45 0 -45 0 0 215 0
215 45 0 45 0 0 -215z"/>
<path d="M1610 561 l0 -301 50 0 49 0 3 113 3 112 225 5 c210 5 227 6 260 27
51 31 80 88 80 155 0 67 -24 114 -79 153 l-43 30 -274 3 -274 3 0 -300z m525
195 c61 -26 76 -102 29 -150 l-27 -26 -213 0 -214 0 0 88 c0 49 3 92 7 95 3 4
91 7 195 7 140 0 197 -4 223 -14z"/>
<path d="M2967 778 c-94 -174 -267 -506 -267 -512 0 -3 24 -6 53 -6 l53 0 32
65 32 65 203 -2 202 -3 33 -62 33 -63 55 0 55 0 -65 123 c-36 67 -107 201
-158 297 l-93 175 -61 3 -62 3 -45 -83z m191 -171 c34 -65 62 -121 62 -123 0
-2 -68 -4 -151 -4 l-150 0 57 108 c31 59 66 122 77 140 23 40 18 46 105 -121z"/>
<path d="M3990 560 l0 -300 50 0 50 0 2 238 3 238 220 -238 220 -237 68 0 67
-1 0 300 0 300 -50 0 -50 0 0 -240 c0 -132 -3 -240 -8 -240 -4 0 -108 108
-230 240 l-223 240 -60 0 -59 0 0 -300z"/>
<path d="M5200 815 l0 -44 143 -3 142 -3 3 -252 2 -253 50 0 50 0 0 255 0 255
140 0 140 0 0 45 0 45 -335 0 -335 0 0 -45z"/>
<path d="M6410 560 l0 -300 315 0 315 0 0 45 0 45 -265 0 -265 0 0 80 0 80
175 0 175 0 0 45 0 45 -175 0 -176 0 3 83 3 82 263 3 262 2 0 45 0 45 -315 0
-315 0 0 -300z"/>
<path d="M7580 561 l0 -301 50 0 50 0 0 115 0 115 144 0 144 0 24 -28 c12 -16
50 -67 83 -115 l60 -86 58 -1 c31 0 57 2 57 5 0 2 -34 54 -75 114 l-75 109 33
11 c71 24 122 106 115 187 -6 64 -37 114 -93 146 -39 22 -49 23 -307 26 l-268
3 0 -300z m551 171 c39 -43 39 -84 0 -123 l-29 -29 -211 0 -211 0 0 96 0 95
211 -3 211 -3 29 -33z"/>
<path d="M9083 848 c-4 -7 -76 -141 -159 -298 l-151 -285 51 -3 c34 -2 54 1
59 10 4 7 21 37 38 66 l29 52 200 0 200 0 32 -65 32 -65 53 0 c29 0 53 3 53 8
0 4 -69 138 -154 297 l-154 290 -60 3 c-41 2 -63 -1 -69 -10z m145 -228 l73
-140 -151 0 c-84 0 -150 3 -148 8 15 36 144 272 148 272 3 0 38 -63 78 -140z"/>
</g>
</svg>
