<svg version="1.0" id="katman_1" xmlns="http://www.w3.org/2000/svg" xmlns:xlink="http://www.w3.org/1999/xlink" x="0px" y="0px" style="enable-background:new 0 0 800 600;" xml:space="preserve" viewBox="98.8 254 602 91.2"> <style type="text/css"> 	.st0{fill-rule:evenodd;clip-rule:evenodd;fill:#18181B;} 	.st1{fill:#18181B;} </style> <path class="st0" d="M98.8,272v21.5h17V272H98.8z M115.9,272h38.1v-16.2h-38.1V272z M700.4,282.6h-21.5l-21,22.6V254h-16.4v89.3 	h16.4v-16l6.8-7.2l16,23.2h20.1l-24.8-35.2L700.4,282.6z M115.9,343.3v-34h33.9v-15.7h-33.9v15.7H98.8v34H115.9z M197.1,282.4 	c-1.2-0.1-2.5-0.2-3.8-0.2c-5.2,0-13.6,1.5-17.3,9.5v-9h-15.9v60.7h16.4v-27.8c0-13.1,7.3-17.1,15.7-17.1c1.5,0,3.1,0.1,4.9,0.5 	V282.4z M223.7,345c-13,0-20.8-8.8-20.8-18.3c0-10.9,8-16.9,18.1-18.4l14.9-2.2c3.5-0.5,4.6-2.2,4.6-4.3c0-4.3-3.3-7.9-10.2-7.9 	c-7.2,0-11.1,4.6-11.6,9.9l-14.6-3.1c1-9.5,9.7-20,26-20c19.2,0,26.4,10.9,26.4,23.1v29.9c0,3.2,0.4,7.5,0.7,9.6h-15 	c-0.4-1.6-0.6-4.9-0.6-7.3C238.5,340.8,232.7,345,223.7,345z M219.3,325.8c0,3.6,2.6,7,7.9,7c6.9,0,13.3-3.3,13.3-14.1v-2.7 	l-13.7,2.1C222.6,318.8,219.3,321.1,219.3,325.8z M282.8,343.3v-35.5c0-6.7,4.2-12,11.3-12c7.4,0,10.7,4.9,10.7,11.5v36h16.3v-35.5 	c0-6.5,4.2-12,11.2-12c7.5,0,10.7,4.9,10.7,11.5v36H359V304c0-16.3-10.7-23.1-22-23.1c-8,0-14.4,2.7-19.2,10.1 	c-3.1-6.5-9.7-10.1-18-10.1c-6.7,0-14.4,3.2-17.8,9.1v-7.4h-15.7v60.7H282.8z M457,321.6l13.2-39h17.3l13.1,39.1l11.2-39.1h16.3 	l-19,60.7h-16.4l-14.2-41.4l-13.9,41.4h-16.7l-19.4-60.7h17.3L457,321.6z M559.5,330.2c-8,0-15.4-5.9-15.4-17.3 	c0-11.5,7.4-17.3,15.4-17.3c8,0,15.4,5.8,15.4,17.3C574.9,324.4,567.5,330.2,559.5,330.2z M559.5,280.8c-18.1,0-31.8,13.4-31.8,32.2 	c0,18.6,13.7,32.2,31.8,32.2c18.1,0,31.8-13.6,31.8-32.2C591.3,294.2,577.6,280.8,559.5,280.8z M630.7,282.1c1.4,0,2.6,0.1,3.8,0.2 	v16.5c-1.9-0.4-3.5-0.5-4.9-0.5c-8.4,0-15.7,4.1-15.7,17.1v27.8h-16.4v-60.7h15.9v9C617.2,283.6,625.6,282.1,630.7,282.1z"></path> <path class="st1" d="M383,306.1c0.4-5.6,5.1-12,13.6-12c9.4,0,13.3,5.9,13.6,12H383z M411.8,321.8c-2,5.4-6.2,9.3-13.8,9.3 	c-8.1,0-14.9-5.8-15.3-13.8h43.4c0-0.2,0.2-2.7,0.2-5.1c0-19.5-11.2-31.5-30-31.5c-15.5,0-29.9,12.6-29.9,31.9 	c0,20.5,14.7,32.4,31.3,32.4c14.9,0,24.5-8.8,27.6-19.2L411.8,321.8z"></path> </svg>