<svg width="18" height="13" viewBox="0 0 18 13" fill="none" xmlns="http://www.w3.org/2000/svg">
<g clip-path="url(#clip0_101_122)">
<path d="M18 1.63793C17.3167 1.90122 16.5973 2.07516 15.8624 2.15479C16.6124 1.76073 17.1921 1.1374 17.5026 0.390996C16.8064 0.734912 16.0106 0.993339 15.1661 1.1653C14.4698 0.562954 13.5238 0.132568 12.4804 0.132568C10.4423 0.132568 8.80106 1.55245 8.80106 3.31624C8.80106 3.57467 8.85079 3.83211 8.90053 4.04731C5.76825 3.91859 3.0328 2.67165 1.24339 0.734912C0.89418 1.20853 0.746032 1.76666 0.746032 2.32675C0.746032 3.44496 1.39153 4.43446 2.38624 4.99455C1.79048 4.99455 1.19365 4.82161 0.696296 4.6074V4.64965C0.696296 6.19923 1.98942 7.48941 3.68042 7.79107C3.38095 7.87656 3.0328 7.91881 2.68571 7.91881C2.43598 7.91881 2.2381 7.91881 1.98942 7.87656C2.43598 9.16772 3.82857 10.0707 5.46984 10.114C4.22646 10.9747 2.58519 11.4896 0.895238 11.4896C0.596825 11.4896 0.298413 11.4896 0 11.4474C1.64021 12.3514 3.57989 12.8673 5.66878 12.8673C12.4307 12.824 16.1598 7.96303 16.1598 3.70339V3.27301C16.8737 2.83469 17.497 2.28087 18 1.63793Z" fill="#003a37"/>
</g>
<defs>
<clipPath id="clip0_101_122">
<rect width="18" height="13" fill="white"/>
</clipPath>
</defs>
</svg>
