<svg width="101" height="101" viewBox="0 0 101 101" fill="none" xmlns="http://www.w3.org/2000/svg">
<mask id="mask0_241_849" style="mask-type:luminance" maskUnits="userSpaceOnUse" x="0" y="0" width="101" height="101">
<path d="M0.355469 0.207031H100.355V100.207H0.355469V0.207031Z" fill="white"/>
</mask>
<g mask="url(#mask0_241_849)">
<path d="M44.4961 97.2773V84.8584C43.5814 85.1852 42.5959 85.3633 41.5664 85.3633C36.7123 85.3633 32.7773 81.4283 32.7773 76.5742C32.7773 71.7201 36.7123 67.7852 41.5664 67.7852C42.5959 67.7852 43.5814 67.9633 44.4961 68.29V43.8428C45.4107 44.1695 46.3963 44.3477 47.4258 44.3477C52.2799 44.3477 56.2148 40.4127 56.2148 35.5586C56.2148 30.7045 52.2799 26.7695 47.4258 26.7695C46.3963 26.7695 45.4107 26.9477 44.4961 27.2744V14.8555" stroke="#003A37" stroke-width="1.25" stroke-miterlimit="10"/>
<path d="M85.707 56.0664H73.2881C73.6148 56.9809 73.793 57.9666 73.793 58.9961C73.793 63.8502 69.858 67.7852 65.0039 67.7852C60.1498 67.7852 56.2148 63.8502 56.2148 58.9961C56.2148 57.9666 56.393 56.9809 56.7197 56.0664H32.2725C32.5992 55.152 32.7773 54.1662 32.7773 53.1367C32.7773 48.2826 28.8424 44.3477 23.9883 44.3477C19.1342 44.3477 15.1992 48.2826 15.1992 53.1367C15.1992 54.1662 15.3773 55.152 15.7041 56.0664H3.28516" stroke="#003A37" stroke-width="1.25" stroke-miterlimit="10"/>
<path d="M85.707 56.0664V43.7783C86.6293 44.1117 87.5967 44.3477 88.6367 44.3477C93.4908 44.3477 97.4258 40.4127 97.4258 35.5586C97.4258 30.7045 93.4908 26.7695 88.6367 26.7695C87.5967 26.7695 86.6293 27.0055 85.707 27.3389V14.8555H73.2236C73.557 13.9332 73.793 12.9658 73.793 11.9258C73.793 7.07168 69.858 3.13672 65.0039 3.13672C60.1498 3.13672 56.2148 7.07168 56.2148 11.9258C56.2148 12.9658 56.4508 13.9332 56.7842 14.8555H44.4961C21.8437 14.8555 3.28516 33.4141 3.28516 56.0664C3.28516 78.7188 21.8437 97.2773 44.4961 97.2773C67.1484 97.2773 85.707 78.7188 85.707 56.0664Z" stroke="#003A37" stroke-width="1.25" stroke-miterlimit="10"/>
</g>
</svg>
